HIERARCHY
ROOT Hips
{
	OFFSET 0.000000 0.000000 0.000000
	CHANNELS 6 Xposition Yposition Zposition Zrotation Yrotation Xrotation 
	JOINT LHipJoint
	{
		OFFSET 0.000000 0.000000 0.000000
		CHANNELS 3 Zrotation Yrotation Xrotation
		JOINT LeftUpLeg
		{
			OFFSET 1.363060 -1.794630 0.839290
			CHANNELS 3 Zrotation Yrotation Xrotation
			JOINT LeftLeg
			{
				OFFSET 2.448110 -6.726130 0.000000
				CHANNELS 3 Zrotation Yrotation Xrotation
				JOINT LeftFoot
				{
					OFFSET 2.562200 -7.039590 0.000000
					CHANNELS 3 Zrotation Yrotation Xrotation
					JOINT LeftToeBase
					{
						OFFSET 0.157640 -0.433110 2.322550
						CHANNELS 3 Zrotation Yrotation Xrotation
						End Site
						{
							OFFSET 0.000000 0.000000 0.000000
						}
					}
				}
			}
		}
	}
	JOINT RHipJoint
	{
		OFFSET 0.000000 0.000000 0.000000
		CHANNELS 3 Zrotation Yrotation Xrotation
		JOINT RightUpLeg
		{
			OFFSET -1.305520 -1.794630 0.839290
			CHANNELS 3 Zrotation Yrotation Xrotation
			JOINT RightLeg
			{
				OFFSET -2.542530 -6.985550 0.000000
				CHANNELS 3 Zrotation Yrotation Xrotation
				JOINT RightFoot
				{
					OFFSET -2.568260 -7.056230 0.000000
					CHANNELS 3 Zrotation Yrotation Xrotation
					JOINT RightToeBase
					{
						OFFSET -0.164730 -0.452590 2.363150
						CHANNELS 3 Zrotation Yrotation Xrotation
						End Site
						{
							OFFSET 0.000000 0.000000 0.000000
						}
					}
				}
			}
		}
	}
	JOINT LowerBack
	{
		OFFSET 0.000000 0.000000 0.000000
		CHANNELS 3 Zrotation Yrotation Xrotation
		JOINT Spine
		{
			OFFSET 0.028270 2.035590 -0.193380
			CHANNELS 3 Zrotation Yrotation Xrotation
			JOINT Spine1
			{
				OFFSET 0.056720 2.048850 -0.042750
				CHANNELS 3 Zrotation Yrotation Xrotation
				JOINT Neck
				{
					OFFSET 0.000000 0.000000 0.000000
					CHANNELS 3 Zrotation Yrotation Xrotation
					JOINT Neck1
					{
						OFFSET -0.054170 1.746240 0.172020
						CHANNELS 3 Zrotation Yrotation Xrotation
						JOINT Head
						{
							OFFSET 0.104070 1.761360 -0.123970
							CHANNELS 3 Zrotation Yrotation Xrotation
							End Site
							{
								OFFSET 0.000000 0.000000 0.000000
							}
						}
					}
				}
				JOINT LeftShoulder
				{
					OFFSET 0.000000 0.000000 0.000000
					CHANNELS 3 Zrotation Yrotation Xrotation
					JOINT LeftArm
					{
						OFFSET 3.362410 1.200890 -0.311210
						CHANNELS 3 Zrotation Yrotation Xrotation
						JOINT LeftForeArm
						{
							OFFSET 4.983000 -0.000000 -0.000000
							CHANNELS 3 Zrotation Yrotation Xrotation
							JOINT LeftHand
							{
								OFFSET 3.483560 -0.000000 -0.000000
								CHANNELS 3 Zrotation Yrotation Xrotation
								JOINT LeftFingerBase
								{
									OFFSET 0.000000 0.000000 0.000000
									CHANNELS 3 Zrotation Yrotation Xrotation
									JOINT LeftHandIndex1
									{
										OFFSET 0.715260 -0.000000 -0.000000
										CHANNELS 3 Zrotation Yrotation Xrotation
										End Site
										{
											OFFSET 0.000000 0.000000 0.000000
										}
									}
								}
								JOINT LThumb
								{
									OFFSET 0.000000 0.000000 0.000000
									CHANNELS 3 Zrotation Yrotation Xrotation
									End Site
									{
										OFFSET 0.000000 0.000000 0.000000
									}
								}
							}
						}
					}
				}
				JOINT RightShoulder
				{
					OFFSET 0.000000 0.000000 0.000000
					CHANNELS 3 Zrotation Yrotation Xrotation
					JOINT RightArm
					{
						OFFSET -3.136600 1.374050 -0.404650
						CHANNELS 3 Zrotation Yrotation Xrotation
						JOINT RightForeArm
						{
							OFFSET -5.241900 -0.000000 -0.000000
							CHANNELS 3 Zrotation Yrotation Xrotation
							JOINT RightHand
							{
								OFFSET -3.444170 -0.000000 -0.000000
								CHANNELS 3 Zrotation Yrotation Xrotation
								JOINT RightFingerBase
								{
									OFFSET 0.000000 0.000000 0.000000
									CHANNELS 3 Zrotation Yrotation Xrotation
									JOINT RightHandIndex1
									{
										OFFSET -0.622530 -0.000000 -0.000000
										CHANNELS 3 Zrotation Yrotation Xrotation
										End Site
										{
											OFFSET 0.000000 0.000000 0.000000
										}
									}
								}
								JOINT RThumb
								{
									OFFSET 0.000000 0.000000 0.000000
									CHANNELS 3 Zrotation Yrotation Xrotation
									End Site
									{
										OFFSET 0.000000 0.000000 0.000000
									}
								}
							}
						}
					}
				}
			}
		}
	}
}
MOTION
Frames: 9
Frame Time: 0.008333
10.722489 17.851156 49.581472 -177.669574 -12.191328 -179.266534 -0.945782 3.151865 1.152046 -15.715973 -25.882309 -3.813252 -1.913003 8.891954 25.290203 -1.680130 7.482529 -2.150441 2.110100 -9.091800 -26.082800 -2.856944 -3.113544 0.906024 28.966821 17.239407 -0.434355 2.776418 -7.723279 24.384719 5.884270 -26.945415 -29.535114 -2.049000 -8.967500 25.693600 4.394967 2.055279 3.544489 3.063783 3.049492 2.285643 -5.167703 1.022335 -9.953561 6.548729 16.397135 -8.299306 4.442529 21.464175 10.801213 -1.252000 11.157000 4.671900 -2.234625 -10.222584 1.264758 -89.382427 5.835185 29.634708 23.069496 -22.991047 -6.319992 1.936615 0.964950 16.713488 4.399583 -36.885442 -1.781900 -7.125000 0.000000 0.000000 -16.468200 -7.131900 19.147100 0.363736 11.661032 2.780543 88.320110 -11.011875 44.304931 -20.386316 23.239271 -5.852641 1.267639 0.343775 16.140707 -9.979376 -54.205432 9.085200 7.125000 0.000000 0.000000 73.403100 -75.777400 -58.888200 
10.724613 17.852807 49.579703 -177.567676 -12.171467 -179.302339 -0.922737 3.140205 1.161154 -15.581829 -25.698542 -3.943415 -1.890334 8.921175 25.377612 -1.594559 7.286758 -2.070707 2.008500 -8.883800 -25.432500 -2.863252 -3.115950 0.903749 29.103684 17.205568 -0.348048 2.793355 -7.681562 24.269639 5.960233 -27.076991 -29.387892 -2.059700 -8.989300 25.761800 4.461734 2.059336 3.512511 3.128468 3.055802 2.297858 -5.178002 1.023832 -9.943665 6.439898 16.445287 -8.217514 4.586725 21.495830 10.763647 -1.209100 11.175500 4.625900 -2.191909 -10.258441 1.237739 -89.498365 5.857790 31.224137 24.936644 -24.915310 -6.940957 1.965541 0.377059 11.450300 -6.525059 -27.286884 3.938300 -7.125000 0.000000 0.000000 -22.460000 3.491000 22.919900 0.346223 11.661186 2.788499 88.331403 -10.993672 44.345862 -20.339954 23.181899 -5.831214 1.270768 0.342887 16.088348 -10.020484 -54.110721 9.111600 7.125000 0.000000 0.000000 73.011700 -75.775800 -58.516000 
10.727090 17.855638 49.578406 -177.509259 -12.177443 -179.265505 -0.918793 3.135283 1.155217 -15.497904 -25.734143 -3.975127 -1.889890 8.916131 25.364508 -1.572393 7.236395 -2.043405 1.800500 -8.437600 -24.051200 -2.863037 -3.112171 0.898260 29.161167 17.198210 -0.397511 2.796386 -7.682041 24.243578 6.052756 -27.270435 -29.290425 -1.991700 -8.848700 25.323100 4.487693 2.088446 3.456481 3.213178 3.091134 2.301068 -5.209883 1.040423 -9.895920 6.262105 16.457192 -8.284136 4.714562 21.497160 10.757087 -1.154200 11.175300 4.600900 -2.247831 -10.258720 1.268068 -89.464335 5.795686 29.608760 23.091304 -22.996543 -6.310367 1.915621 0.969480 16.821204 4.959989 -36.526049 -2.129300 -7.125000 0.000000 0.000000 -16.150900 -6.861300 18.681000 0.357283 11.643547 2.784468 88.271110 -11.017290 44.315860 -20.384819 23.229756 -5.849316 1.269870 0.342260 16.059453 -10.058588 -54.112391 9.142700 7.125000 0.000000 0.000000 72.999200 -75.789900 -58.519800 
10.728741 17.857054 49.578288 -177.492995 -12.133775 -179.236744 -0.914062 3.131858 1.154752 -15.467139 -25.712621 -4.006224 -1.890960 8.914464 25.358306 -1.575282 7.243976 -2.047847 1.835300 -8.514300 -24.287500 -2.854478 -3.108571 0.899407 29.170601 17.290369 -0.384098 2.808571 -7.674048 24.216524 6.047261 -27.332043 -29.441941 -1.957900 -8.777900 25.103000 4.456105 2.106551 3.416556 3.303137 3.111098 2.329066 -5.169699 1.052398 -9.877618 6.226220 16.437956 -8.336978 4.585280 21.499745 10.715433 -1.183700 11.165900 4.609800 -2.224870 -10.276707 1.237417 -89.601792 5.765515 31.002976 24.556419 -24.484803 -6.766189 1.915870 0.551084 12.636211 -2.757689 -29.103273 2.246200 -7.125000 0.000000 0.000000 -20.254000 1.436900 21.115600 0.338650 11.660663 2.796379 88.212969 -10.983226 44.274508 -20.367803 23.205900 -5.838861 1.272251 0.337816 16.116620 -10.066369 -54.025323 9.141500 7.125000 0.000000 0.000000 72.644900 -75.776300 -58.170000 
10.730511 17.857408 49.577816 -177.556610 -12.068282 -179.240992 -0.918769 3.135509 1.161621 -15.536136 -25.699861 -3.977105 -1.897730 8.908196 25.340261 -1.606177 7.314901 -2.088081 1.925300 -8.708800 -24.888600 -2.844212 -3.113264 0.913914 29.112406 17.400082 -0.314764 2.818089 -7.666330 24.222688 5.916777 -27.143807 -29.742434 -2.025200 -8.918300 25.540000 4.347382 2.118935 3.397068 3.338965 3.118751 2.426911 -5.119104 1.068641 -9.849890 6.106377 16.427123 -8.564517 4.678563 21.489246 10.782052 -1.123600 11.162700 4.636000 -2.262745 -10.264267 1.260519 -89.546022 5.706710 29.704545 23.157669 -23.055364 -6.327397 1.900018 0.968525 16.832481 5.233361 -36.225123 -2.291800 -7.125000 0.000000 0.000000 -15.986000 -6.603500 18.411400 0.344315 11.662110 2.785680 88.162890 -10.881759 44.294232 -20.327344 23.156459 -5.818960 1.275167 0.335127 16.134628 -10.089601 -53.933748 9.152900 7.125000 0.000000 0.000000 72.271200 -75.767200 -57.807800 
10.732398 17.857526 49.577108 -177.623644 -12.083162 -179.217166 -0.924150 3.131535 1.158638 -15.590803 -25.689405 -3.984680 -1.906240 8.900252 25.311575 -1.635200 7.381012 -2.103163 1.981700 -8.827900 -25.258400 -2.837819 -3.110395 0.917304 29.025559 17.347054 -0.373146 2.809629 -7.675505 24.251232 5.850499 -26.931213 -29.676167 -2.121000 -9.113700 26.151600 4.240803 2.093621 3.394242 3.342585 3.077757 2.429450 -5.041845 1.055996 -9.867436 6.027075 16.429279 -8.700956 4.867930 21.472710 10.928245 -1.041900 11.169500 4.668300 -2.237341 -10.269784 1.239082 -89.615805 5.708214 30.878473 24.344441 -24.278693 -6.711210 1.928511 0.629408 13.348614 -1.663921 -30.574989 1.766900 -7.125000 0.000000 0.000000 -19.610000 -0.116700 20.913500 0.333529 11.675323 2.796073 88.122148 -10.879757 44.385262 -20.346150 23.180151 -5.825811 1.275241 0.333681 16.114476 -10.114349 -53.884555 9.168100 7.125000 0.000000 0.000000 72.063700 -75.766200 -57.611300 
10.733577 17.857054 49.578288 -177.608445 -12.098789 -179.211579 -0.930113 3.142366 1.151484 -15.599676 -25.846633 -3.890232 -1.916094 8.884387 25.269222 -1.695481 7.521386 -2.187344 1.969200 -8.801700 -25.177000 -2.838863 -3.113116 0.914468 29.027169 17.270948 -0.445217 2.796451 -7.693011 24.280489 5.893907 -26.935596 -29.463539 -2.114600 -9.100900 26.111400 4.242636 2.088151 3.411877 3.369192 3.071094 2.390561 -5.054525 1.051917 -9.876316 6.049287 16.459579 -8.542556 4.807021 21.506114 10.747204 -1.086600 11.174100 4.599400 -2.266924 -10.271226 1.263683 -89.594927 5.709580 29.675196 23.180123 -23.092173 -6.350303 1.912445 0.963331 16.777022 4.850213 -36.425313 -2.056200 -7.125000 0.000000 0.000000 -16.200800 -6.742700 18.713800 0.343931 11.651866 2.789803 88.110217 -10.921216 44.379056 -20.384571 23.222756 -5.837411 1.274239 0.334746 16.050072 -9.999037 -53.782737 9.061800 7.125000 0.000000 0.000000 71.716300 -75.701600 -57.213300 
10.734521 17.855521 49.580765 -177.627245 -12.098479 -179.249363 -0.938197 3.164180 1.149841 -15.663229 -26.044053 -3.729996 -1.923974 8.867929 25.233999 -1.704536 7.541090 -2.260838 1.768200 -8.365600 -23.830100 -2.837892 -3.123695 0.919230 29.009975 17.268636 -0.424639 2.789871 -7.700204 24.302902 5.902653 -26.935995 -29.421260 -2.077500 -9.025600 25.875500 4.248566 2.104956 3.469869 3.367204 3.098279 2.390470 -5.054596 1.065289 -9.915936 6.134301 16.469338 -8.286930 4.527364 21.539086 10.436380 -1.214300 11.162900 4.511000 -2.236873 -10.295679 1.245129 -89.673469 5.762953 30.891044 24.367014 -24.311763 -6.729374 1.936454 0.620755 13.333931 -1.959674 -30.586409 1.927600 -7.125000 0.000000 0.000000 -19.774200 -0.099900 21.106200 0.336393 11.640035 2.793827 88.119849 -10.952132 44.225588 -20.397357 23.236736 -5.840715 1.273365 0.334748 16.104858 -9.821842 -53.772626 8.914600 7.125000 0.000000 0.000000 71.755300 -75.633400 -57.174100 
10.736173 17.854931 49.581472 -177.693114 -12.128899 -179.250651 -0.949613 3.168932 1.145771 -15.732355 -26.120497 -3.674673 -1.931741 8.855768 25.199801 -1.692115 7.510201 -2.256341 1.666700 -8.134300 -23.122800 -2.834790 -3.126709 0.923962 28.943073 17.337062 -0.399996 2.788347 -7.703809 24.325307 5.833515 -26.797763 -29.512063 -2.124500 -9.120800 26.173900 4.223665 2.100797 3.491604 3.313469 3.092389 2.385643 -5.054912 1.063868 -9.929227 6.061503 16.448639 -8.409495 4.702907 21.494963 10.591382 -1.141900 11.155500 4.544100 -2.251899 -10.278815 1.261944 -89.607535 5.816612 30.149552 23.528536 -23.454025 -6.460910 1.924932 0.872962 15.819316 2.861539 -34.845485 -0.759400 -7.125000 0.000000 0.000000 -17.182200 -4.882200 19.445200 0.347294 11.636431 2.788176 88.141576 -10.945576 44.177257 -20.356589 23.190225 -5.827665 1.273789 0.332806 16.273711 -9.805597 -53.890111 8.913500 7.125000 0.000000 0.000000 72.218800 -75.652300 -57.630700 
